<svg xmlns="http://www.w3.org/2000/svg" viewBox="0 0 500 500"><g id="freepik--background-complete--inject-42"><rect x="53.73" y="281.62" width="26.48" height="11.19" transform="translate(133.93 574.43) rotate(180)" style="fill:#ebebeb"></rect><path d="M68.5,267.51l13.12-.28,6.66-.11c2.23-.05,4.47,0,6.7-.05h.44v.45l.06,11.19v.5H95l-13.24-.06c-4.41,0-8.83-.12-13.24-.17h-.28v-.27c0-1.9.08-3.79.13-5.65Zm0,0,.14,5.65c0,1.87.11,3.71.13,5.54l-.27-.27c4.41-.05,8.83-.16,13.24-.17L95,278.2l-.5.5,0-11.19L95,268c-2.18,0-4.36,0-6.55-.06l-6.58-.11Z" style="fill:#ebebeb"></path><path d="M39,267.51l13.12-.28,6.66-.11c2.23-.05,4.46,0,6.7-.05h.44v.45l.06,11.19v.5h-.5l-13.24-.06c-4.42,0-8.83-.12-13.24-.17h-.28v-.27c0-1.9.09-3.79.13-5.65Zm0,0,.14,5.65c0,1.87.11,3.71.13,5.54l-.27-.27c4.41-.05,8.82-.16,13.24-.17l13.24-.06-.5.5,0-11.19.45.45c-2.19,0-4.36,0-6.55-.06l-6.58-.11Z" style="fill:#ebebeb"></path><path d="M446.27,59.94l-13.12.28-6.66.11c-2.23.05-4.47,0-6.7.06h-.44v-.45l-.06-11.19v-.5h.5l13.24.07c4.42,0,8.83.11,13.24.16h.28v.27c0,1.9-.09,3.79-.13,5.66Zm0,0-.14-5.65c0-1.86-.11-3.7-.13-5.54l.27.28c-4.41,0-8.82.16-13.24.16l-13.24.06.5-.5-.05,11.19-.45-.44c2.18,0,4.36,0,6.55,0l6.58.12Z" style="fill:#ebebeb"></path><rect x="434.56" y="62.86" width="26.48" height="11.19" style="fill:#ebebeb"></rect><path d="M65.44,60l-13.13.27-6.66.12c-2.23,0-4.46,0-6.69,0h-.45V60l0-11.19v-.51H39l13.24.06c4.41,0,8.82.11,13.24.16h.27v.27c0,1.89-.09,3.78-.13,5.65Zm0,0-.15-5.66c0-1.86-.11-3.7-.13-5.53l.28.27c-4.42.05-8.83.16-13.24.16L39,49.27l.49-.5L39.4,60,39,59.51c2.18,0,4.35,0,6.54.06l6.58.11Z" style="fill:#ebebeb"></path><rect x="337.96" y="418.86" width="26.48" height="11.19" transform="translate(702.4 848.92) rotate(180)" style="fill:#ebebeb"></rect><path d="M434.56,271.69l13.13-.28,6.66-.11c2.23-.05,4.46,0,6.69-.06h.45v.45l.05,11.19v.5H461l-13.24-.06c-4.41,0-8.82-.12-13.24-.17h-.27v-.27c0-1.9.09-3.79.13-5.65Zm0,0,.15,5.65c0,1.87.11,3.71.13,5.54l-.28-.27c4.42-.05,8.83-.16,13.24-.17l13.24-.06-.49.5.05-11.19.44.45c-2.18,0-4.35,0-6.54-.06l-6.58-.11Z" style="fill:#ebebeb"></path><rect x="122.82" y="401.59" width="26.48" height="11.19" transform="translate(272.12 814.37) rotate(180)" style="fill:#ebebeb"></rect><path d="M352.73,404.75l13.12-.28,6.67-.11c2.22,0,4.46,0,6.69-.05h.44v.45l0,11.19v.5h-.5L366,416.38c-4.41,0-8.83-.11-13.24-.16h-.28v-.27c0-1.9.08-3.78.13-5.65Zm0,0,.14,5.66c.05,1.86.11,3.7.13,5.53l-.27-.27c4.41-.05,8.83-.16,13.24-.16l13.24-.07-.5.5.05-11.19.45.45c-2.18,0-4.36,0-6.55-.06l-6.57-.11Z" style="fill:#ebebeb"></path><rect x="79.48" y="52.55" width="157.17" height="324.78" style="fill:#c7c7c7"></rect><rect x="86.43" y="59.12" width="143.27" height="311.65" style="fill:#fff"></rect><rect x="79.48" y="134.58" width="157.17" height="6.57" style="fill:#c7c7c7"></rect><rect x="263.35" y="52.55" width="157.17" height="324.78" style="fill:#c7c7c7"></rect><rect x="270.31" y="59.12" width="143.27" height="311.65" style="fill:#fff"></rect><rect x="263.35" y="134.57" width="157.17" height="6.58" style="fill:#c7c7c7"></rect><g style="opacity:0.2"><polygon points="229.69 59.54 229.69 69.27 86.88 233.88 86.88 178.9 190.44 59.54 229.69 59.54" style="fill:#ebebeb"></polygon><polygon points="413.57 209.38 413.57 264.36 321.26 370.77 273.56 370.77 413.57 209.38" style="fill:#ebebeb"></polygon><polygon points="229.69 309.17 229.69 336.66 200.09 370.77 176.25 370.77 229.69 309.17" style="fill:#ebebeb"></polygon><polygon points="413.57 97.24 413.57 124.73 405.04 134.57 399.32 141.15 270.31 289.85 263.36 297.86 263.36 270.37 270.31 262.36 375.48 141.15 381.19 134.57 413.57 97.24" style="fill:#ebebeb"></polygon><polygon points="128.14 59.55 86.88 107.13 86.88 79.62 104.29 59.55 128.14 59.55" style="fill:#ebebeb"></polygon><polygon points="86.88 305.75 229.69 141.12 229.69 147.99 86.88 312.6 86.88 305.75" style="fill:#ebebeb"></polygon><polygon points="306.44 59.54 270.31 101.18 263.36 109.19 263.36 102.32 270.31 94.31 300.46 59.54 306.44 59.54" style="fill:#ebebeb"></polygon><polygon points="229.69 274.03 229.69 280.89 151.72 370.77 145.76 370.77 229.69 274.03" style="fill:#ebebeb"></polygon><polygon points="413.57 62.08 413.57 68.96 356.64 134.57 350.94 141.15 270.31 234.09 263.36 242.1 263.36 235.23 270.31 227.22 344.98 141.15 350.69 134.57 413.57 62.08" style="fill:#ebebeb"></polygon><polygon points="413.57 345.58 413.57 352.45 397.69 370.77 391.71 370.77 413.57 345.58" style="fill:#ebebeb"></polygon><polygon points="164.44 59.55 86.88 148.97 86.88 142.09 158.5 59.55 164.44 59.55" style="fill:#ebebeb"></polygon></g></g><g id="freepik--Plant--inject-42"><path d="M47.08,337.78c3.51-3.44,8.05-7.59,13.41-6.11,5.05,1.39,7,6.9,7.88,11.49,1.17,5.91,2.07,11.89,3,17.84s1.84,12,2.71,18.06c.48,3.4,1,6.8,1.44,10.21.24,1.7.48,3.4.71,5.1s.51,3.34.6,5c0,.53-.81.61-.93.1-.65-2.84-.91-5.79-1.33-8.67l-1.26-8.68q-1.26-8.64-2.58-17.25t-2.68-17.25c-.78-4.87-1.15-10.92-5.47-14.13a8.35,8.35,0,0,0-8.07-.76c-2.84,1.09-5.11,3.12-7.33,5.13A.07.07,0,0,1,47.08,337.78Z" style="fill:#263238"></path><path d="M51.89,334.26s7.17-2.58,10.71,2.66S61.9,355.46,29.25,363a92.23,92.23,0,0,1,7.86-29.51C44.11,318.19,56.58,324,51.89,334.26Z" style="fill:#FFC727"></path><path d="M31.13,360.79a25.76,25.76,0,0,1,1.64-2.64c.55-.85,1.1-1.68,1.66-2.52.42-.62.84-1.25,1.27-1.87,0-.15,0-.31-.06-.46s-.07-.57-.11-.85c-.08-.61-.17-1.22-.26-1.83s-.19-1.22-.31-1.83a9.68,9.68,0,0,0-.42-1.92c0-.1.13-.14.14,0a6.9,6.9,0,0,0,.29,1.08c.08.28.15.55.22.83.16.61.31,1.24.45,1.86s.24,1.15.34,1.73l.12.84c.58-.83,1.18-1.65,1.79-2.46,1.73-2.28,3.57-4.48,5.46-6.62,0,0,0,0,0-.06-.17-3.43-.09-6.83-.85-10.21,0-.09.12-.14.14,0a35.35,35.35,0,0,1,1.22,9.76c.68-.76,1.36-1.52,2.06-2.27q2.39-2.56,4.87-5c.06-.07.17,0,.1.1-2.75,3-5.36,6.05-7.91,9.19a54,54,0,0,1,6,.22c2.22.16,4.42.45,6.61.75.1,0,.07.16,0,.15a63.65,63.65,0,0,0-6.61-.6c-2.13-.08-4.24,0-6.37,0q-2.07,2.55-4.08,5.15h1.81c1,0,2,.08,3,.17a43.86,43.86,0,0,1,6,.9.07.07,0,0,1,0,.14c-2-.22-4-.41-6-.48-1,0-1.93,0-2.89,0h-1.5a1.89,1.89,0,0,1-.83-.08q-1.32,1.71-2.63,3.43-1,1.37-2,2.76c-.69.95-1.31,2-2.07,2.87C31.19,361,31.09,360.87,31.13,360.79Z" style="fill:#263238"></path><path d="M48.76,341.68a21.48,21.48,0,0,1,3.49-.17c1.17,0,2.34,0,3.5.08a.07.07,0,1,1,0,.14c-1.18-.08-2.36-.1-3.55-.09s-2.28.13-3.42.1C48.73,341.74,48.72,341.69,48.76,341.68Z" style="fill:#263238"></path><path d="M38.51,344.31c-.13-1.11-.27-2.23-.51-3.33,0-.1.13-.14.14,0,.17,1.1.39,2.19.55,3.29.08.55.15,1.1.22,1.65a8.13,8.13,0,0,1,.14,1.55.11.11,0,0,1-.2,0,9,9,0,0,1-.16-1.56C38.63,345.37,38.58,344.84,38.51,344.31Z" style="fill:#263238"></path><path d="M40.66,332c.29,1.08.57,2.18.77,3.29.1.56.19,1.12.26,1.68a6.55,6.55,0,0,1,.11,1.65,0,0,0,0,1-.08,0,9.19,9.19,0,0,1-.26-1.57c-.07-.55-.16-1.09-.25-1.63-.2-1.14-.4-2.26-.69-3.38C40.5,331.92,40.64,331.87,40.66,332Z" style="fill:#263238"></path><path d="M83.18,398.18c.18-2.05.38-4.11.6-6.16q.64-6.11,1.47-12.18c.54-4,1.06-8.09,1.71-12.12a30.43,30.43,0,0,1,1.25-5.5,5.23,5.23,0,0,1,3-3.44c3.85-1.33,6.44,2.66,8,5.48.05.08-.08.14-.13.07-.93-1.34-3.5-5.09-6.41-4.91-2,.12-3.53,1.51-4.47,6.4-2.35,12.18-4.46,36.9-4.71,38.52-.13.86-.73.82-.74-.1C82.77,402.22,83,400.2,83.18,398.18Z" style="fill:#263238"></path><path d="M98.2,362.74s-3.35-11.86,4.07-5.93c12.35,9.87,12.79,31.34,12.79,31.34S93.1,375.39,90.37,367C86.3,354.44,98.2,362.74,98.2,362.74Z" style="fill:#FFC727"></path><path d="M94.05,368.56c1.72.35,3.47.58,5.21.83l2.47.35,1.68.2c-1.64-2.26-3.29-4.5-4.86-6.8-.06-.09.08-.18.15-.11a49.58,49.58,0,0,1,3.67,4.24c.32-.92.65-1.84,1-2.76s.77-2.11,1-3.21c0-.09.17-.05.14,0-.3,1.09-.51,2.2-.8,3.29s-.6,2.09-1,3.11c.8,1.05,1.57,2.12,2.32,3.2.38-1.07.85-2.11,1.18-3.2a.07.07,0,0,1,.14.05c-.39,1.2-.6,2.45-1,3.66.5.74,1,1.47,1.49,2.22.88,1.37,1.72,2.76,2.54,4.17a.33.33,0,0,1,.19.33c1.39,2.4,2.71,4.84,4,7.3a.07.07,0,0,1-.13.07c-1.3-2.43-2.75-4.79-4.26-7.12h0a3.17,3.17,0,0,0-.72-.14l-.76-.16c-.56-.12-1.13-.27-1.69-.41-1.11-.28-2.22-.54-3.35-.74-.09,0,0-.15,0-.14,1.33.26,2.67.41,4,.56.64.08,1.27.16,1.9.26h.09q-1.18-1.8-2.4-3.57c-.8-1.16-1.62-2.3-2.44-3.44-.76-.11-1.52-.31-2.27-.45l-2.55-.5c-1.7-.33-3.4-.71-5.11-1C93.91,368.69,94,368.54,94.05,368.56Z" style="fill:#263238"></path><path d="M107.25,369.73c.1-.31.19-.63.29-.94a20,20,0,0,0,.51-2c0-.09.16-.05.14,0-.15.67-.3,1.34-.46,2a12.43,12.43,0,0,1-.57,2,.13.13,0,0,1-.25-.08C107,370.4,107.14,370.07,107.25,369.73Z" style="fill:#263238"></path><path d="M91.8,365.82c1,.15,2,.22,3,.3s2,.23,3,.39c0,0,0,.09,0,.08-1-.07-2-.14-3-.28s-2-.28-3-.35C91.7,366,91.71,365.8,91.8,365.82Z" style="fill:#263238"></path><path d="M67,383.17c.39-8.73.94-17.44,1.82-26.14.43-4.33.92-8.66,1.53-13a94.14,94.14,0,0,1,2.5-12.55,24.09,24.09,0,0,1,4.18-8.84A9.49,9.49,0,0,1,85.49,319c3.82.47,6.9,2.88,9.56,5.5,3,2.93,5.72,6.13,8.48,9.27.7.8,1.4,1.59,2.09,2.4.06.07-.05.17-.11.1q-4-4.67-8.45-9c-2.72-2.66-5.52-5.58-9.28-6.68a9.6,9.6,0,0,0-5.39-.13,8.61,8.61,0,0,0-3.68,2.33,19.25,19.25,0,0,0-4.15,8.08c-2.35,8-3.19,16.44-4.06,24.72S69,372.42,68.59,380.88s-.76,17-1.57,25.48c-.11,1.05-.24,2.09-.37,3.13-.09.7-1.18.7-1.12,0C66.22,400.71,66.62,391.94,67,383.17Z" style="fill:#263238"></path><path d="M95.53,325.42s-5-9.23.91-12.18,25.6,19,31.36,51.22c0,0-31.84-14.09-42.65-28.13S86.59,319.21,95.53,325.42Z" style="fill:#FFC727"></path><path d="M90.85,332.92c3.58,0,7.15-.27,10.73-.24-.67-.77-1.34-1.54-2-2.3a34.32,34.32,0,0,1-2.8-3.25c-.05-.08.06-.18.13-.13a25.78,25.78,0,0,1,2.71,2.72c.9.95,1.79,1.91,2.68,2.87,1.36,1.48,2.7,3,4,4.49,0-.15,0-.29,0-.44,0-.62,0-1.25,0-1.88,0-1.21,0-2.42,0-3.64,0-2.46,0-4.93-.18-7.39,0-.09.14-.09.14,0,.18,2.47.43,4.92.55,7.4.06,1.21.09,2.42.11,3.64,0,.62,0,1.25,0,1.88,0,.34,0,.7,0,1l.63.7c2.86,3.27,5.58,6.64,8.22,10.08a5.25,5.25,0,0,1,.05-.57c0-.38.08-.76.12-1.14.09-.82.21-1.64.33-2.45s.24-1.54.36-2.3.36-1.73.43-2.6a.07.07,0,1,1,.14,0,22.83,22.83,0,0,0-.3,2.62c-.07.79-.15,1.57-.22,2.36s-.14,1.58-.22,2.37c0,.37-.07.75-.11,1.13,0,.19,0,.38-.07.57a1.18,1.18,0,0,1-.16.45c.46.59.91,1.18,1.36,1.78,1.81,2.39,3.58,4.8,5.36,7.22,0,.07,0,.17-.11.1-1.68-2.19-3.41-4.34-5.16-6.47-1.31.06-2.65,0-4-.06s-2.77,0-4.15,0a.07.07,0,1,1,0-.14l4.14.05c1.26,0,2.54-.06,3.8,0q-2.31-2.81-4.65-5.59c-.57-.68-1.15-1.35-1.71-2a7.79,7.79,0,0,1-1.6.06h-1.89l-3.52,0c-2.44,0-4.87-.12-7.3-.13-.09,0-.09-.14,0-.15,2.43,0,4.86-.13,7.3-.19,1.17,0,2.35-.07,3.53-.09l1.88,0c.36,0,.73,0,1.09,0-1.34-1.59-2.67-3.18-4-4.76a.2.2,0,0,1-.08-.08q-1.95-2.31-3.93-4.61l-.54-.62c-3.71.11-7.42-.13-11.12-.06A.07.07,0,0,1,90.85,332.92Z" style="fill:#263238"></path><path d="M92.68,339.25h.87c.08,0,.08.13,0,.13h-.86A.07.07,0,1,1,92.68,339.25Z" style="fill:#263238"></path><path d="M94.61,339.26c1.14,0,2.29,0,3.44-.07l1.72-.06a7,7,0,0,1,1.59,0,.06.06,0,0,1,0,.11,6.11,6.11,0,0,1-1.6.11l-1.72,0H94.6C94.51,339.41,94.51,339.26,94.61,339.26Z" style="fill:#263238"></path><path d="M104.62,350a47.48,47.48,0,0,1,7-.64,0,0,0,0,1,0,.05c-2.34.23-4.69.35-7,.73C104.56,350.17,104.52,350,104.62,350Z" style="fill:#263238"></path><path d="M114.19,339.76c0-.2,0-.41.07-.61q.09-.69.21-1.38c.13-.87.29-1.75.45-2.62,0-.08.16,0,.15,0-.11.9-.21,1.8-.29,2.7l-.12,1.33a3.53,3.53,0,0,1-.18,1.26c-.06.14-.27.08-.31-.05A1.64,1.64,0,0,1,114.19,339.76Z" style="fill:#263238"></path><path d="M67.33,313.57c1.14-2.12,2.59-4.92,5.43-4.74,2.35.14,3.41,2.54,3.91,4.52,1.55,6.13,1.66,12.59,2,18.87.63,13.27,1.21,26.56,1.29,39.85,0,3.68,0,7.37,0,11.05s0,7.53-.26,11.28a.28.28,0,0,1-.56,0c0-3.21.1-6.43.11-9.64s0-6.27-.06-9.41q-.17-9.52-.51-19t-.78-18.92q-.19-4.74-.41-9.46c-.14-3.05-.27-6.11-.62-9.15-.19-1.7-.45-3.4-.8-5.08a7.08,7.08,0,0,0-1.47-3.4,3.2,3.2,0,0,0-4.15-.3,8.84,8.84,0,0,0-3,3.67C67.41,313.73,67.28,313.66,67.33,313.57Z" style="fill:#263238"></path><path d="M68.1,312.56s2.34-8.26-2.83-4.13c-8.61,6.87-8.92,21.83-8.92,21.83s15.31-8.89,17.21-14.75C76.39,306.78,68.1,312.56,68.1,312.56Z" style="fill:#FFC727"></path><path d="M59.57,324.13c.14-.23.29-.45.44-.68a4.09,4.09,0,0,1,0-.7v-1.07c0-.7,0-1.4-.08-2.09,0-.1.14-.09.15,0,0,.69.06,1.37.08,2.05,0,.35,0,.69,0,1,0,.14,0,.29,0,.44.61-.93,1.22-1.85,1.86-2.76l.57-.78a16.22,16.22,0,0,0,0-2.7c0-1,0-1.92-.06-2.88,0-.09.15-.09.15,0,0,1,.08,2,.13,3a19.12,19.12,0,0,1,.06,2.14c1.48-2,3-3.95,4.63-5.88.05-.06.17,0,.11.1-1,1.24-1.92,2.52-2.84,3.81,1.8-.42,3.63-.67,5.46-.93.09,0,.13.13,0,.14-1.93.3-3.83.78-5.75,1.2h0c-.74,1-1.46,2.07-2.18,3.11L61.53,322l.08,0,.6-.08c.42-.05.85-.08,1.27-.11.88-.07,1.77-.12,2.65-.17a.08.08,0,0,1,0,.15c-.87,0-1.74.09-2.6.18l-1.37.16-.6.08-.17,0c-.49.72-1,1.44-1.48,2.17-.86,1.28-1.63,2.64-2.55,3.88a.07.07,0,0,1-.12-.08A39.09,39.09,0,0,1,59.57,324.13Z" style="fill:#263238"></path><path d="M63.38,314.8c0-.32,0-.64,0-1a15.16,15.16,0,0,0-.08-2,.07.07,0,1,1,.14,0c0,.66.08,1.33.11,2,0,.33,0,.67,0,1,0,.16,0,.31,0,.47a1.55,1.55,0,0,1,0,.48.07.07,0,0,1-.13,0,1.29,1.29,0,0,1,0-.44Z" style="fill:#263238"></path><path d="M65.28,318.22c.56-.1,1.15-.13,1.72-.18s1.26-.11,1.89-.19a.08.08,0,1,1,0,.15c-1.21.08-2.41.29-3.62.34A.06.06,0,0,1,65.28,318.22Z" style="fill:#263238"></path><path d="M60.47,318.27c0,.06,0,.24,0,.32v.26c0,.2,0,.39,0,.58V320a1.2,1.2,0,0,1,0,.5s0,0,0,0a.47.47,0,0,1,0-.24v-.84c0-.19,0-.39,0-.58v-.26c0-.09,0-.26,0-.32S60.57,318.13,60.47,318.27Z" style="fill:#263238"></path><path d="M67,357.64c3.22-2.41,6.11-5.88,10.44-6.05,3.57-.15,6.08,2.54,7.51,5.54a31.74,31.74,0,0,1,1.75,4.93q1,3.39,1.82,6.82c1.12,4.48,2.09,9,2.87,13.57.43,2.54.84,5.09,1.16,7.65a64.42,64.42,0,0,1,.75,7.83.41.41,0,0,1-.8.09c-.43-2.14-.62-4.35-.93-6.51s-.65-4.35-1-6.51q-1.09-6.51-2.56-12.94C87,368,86.13,363.9,84.82,360c-.93-2.82-2.43-6.12-5.49-7.14-4.64-1.54-8.86,2.39-12.25,4.94C67,357.81,66.9,357.7,67,357.64Z" style="fill:#263238"></path><path d="M70.3,355.33s3-8.47-1.32-10.13c-6.43-2.49-23.26,16.47-20,45.51,0,0,13-7.17,22.6-15.22s12.06-18.59,7.83-21.31S70.3,355.33,70.3,355.33Z" style="fill:#FFC727"></path><path d="M51,384.48a24.23,24.23,0,0,1,1.56-2.93c.55-1,1.11-2,1.68-3,1.12-1.91,2.23-3.83,3.37-5.72l.57-.92c0-.11,0-.23-.07-.34l-.19-.84c-.15-.63-.26-1.27-.38-1.9-.23-1.25-.44-2.5-.78-3.72,0-.09.13-.12.15,0,.26,1.24.65,2.46,1,3.68.18.6.37,1.19.53,1.8.06.21.11.41.16.62,1.39-2.26,2.79-4.52,4.31-6.7a2.79,2.79,0,0,1-.15-.93l-.15-1.27c-.11-1-.22-1.91-.36-2.87-.28-1.87-.56-3.72-1-5.56a.07.07,0,0,1,.14,0c.47,1.83,1,3.66,1.32,5.52.17.91.33,1.82.45,2.74.06.45.11.91.16,1.37,0,.14,0,.28,0,.42.47-.66.93-1.32,1.42-2,1.49-1.95,3-3.86,4.58-5.76.06-.07.18,0,.12.09A102.15,102.15,0,0,0,62.14,367L60.87,369l.42-.06,1.64-.15c1.1-.1,2.19-.2,3.29-.28,2.19-.18,4.38-.31,6.57-.55.09,0,.12.14,0,.15-2.21.25-4.41.61-6.62.92-1.09.16-2.17.3-3.26.44a12.76,12.76,0,0,1-2.5.26q-1.3,2.08-2.59,4.19a3.75,3.75,0,0,1,.58,0h3.13c1.42,0,2.83,0,4.24,0,.09,0,.08.15,0,.15-1.43,0-2.85.09-4.28.16l-2,.12-1,.08a2.22,2.22,0,0,1-.89,0L55.35,378c-.67,1.1-1.35,2.19-2,3.28a26.48,26.48,0,0,1-2.21,3.31C51,384.62,50.92,384.57,51,384.48Z" style="fill:#263238"></path><path d="M57.15,361a21.5,21.5,0,0,0,.59,2.76c.24.94.51,1.87.81,2.8a.09.09,0,1,1-.17.05c-.29-.91-.55-1.84-.77-2.77S57.24,362,57,361C57,360.94,57.14,360.92,57.15,361Z" style="fill:#263238"></path><path d="M66.71,366.68a1.11,1.11,0,0,1,.71-.26l1.22-.17,2.29-.28c1.58-.18,3.17-.34,4.75-.54.1,0,.12.14,0,.15-1.5.18-3,.41-4.47.6l-2.2.29-1.06.12a3.68,3.68,0,0,0-1.2.2C66.71,366.83,66.66,366.73,66.71,366.68Z" style="fill:#263238"></path><path d="M57.18,379.45c.74-.06,1.5-.08,2.25-.11l1.13,0,.55,0a3.39,3.39,0,0,0,.71,0c.1,0,.11.16,0,.15a2.43,2.43,0,0,0-.66,0l-.59,0-1.13.07c-.75.05-1.51.09-2.26.09C57.09,379.62,57.09,379.46,57.18,379.45Z" style="fill:#263238"></path><path d="M52.59,376.2l-.24-1.27c-.16-.84-.31-1.68-.46-2.51a.07.07,0,1,1,.14,0c.19.82.37,1.63.55,2.45.1.4.19.81.27,1.22l.12.57a1.73,1.73,0,0,1,.07.6c0,.07-.12.12-.17,0A3.25,3.25,0,0,1,52.59,376.2Z" style="fill:#263238"></path><polygon points="56.22 401.23 56.61 413.14 59.07 458.11 99.12 458.11 101.57 413.14 101.98 401.23 56.22 401.23" style="fill:#37474f"></polygon><polygon points="56.22 401.23 56.61 413.14 101.57 413.14 101.98 401.23 56.22 401.23" style="fill:#263238"></polygon><rect x="50.97" y="392.74" width="56.24" height="12.01" transform="translate(158.18 797.49) rotate(180)" style="fill:#37474f"></rect></g><g id="freepik--Desk--inject-42"><polygon points="331.05 342.55 328.34 358.82 309.96 458.07 307 458.07 320.36 358.82 322.33 342.55 331.05 342.55" style="fill:#dbdbdb"></polygon><polygon points="322.33 342.55 331.05 342.55 328.34 358.82 320.36 358.82 322.33 342.55" style="fill:#a6a6a6"></polygon><polygon points="388.77 458.07 385.81 458.07 367.43 358.82 364.71 342.55 373.43 342.55 375.4 358.82 388.77 458.07" style="fill:#dbdbdb"></polygon><polygon points="373.43 342.55 375.4 358.82 367.43 358.82 364.71 342.55 373.43 342.55" style="fill:#a6a6a6"></polygon><polygon points="443.9 458.07 440.93 458.07 422.55 358.82 419.84 342.55 428.56 342.55 430.53 358.82 443.9 458.07" style="fill:#dbdbdb"></polygon><polygon points="430.53 358.82 422.55 358.82 419.84 342.55 428.56 342.55 430.53 358.82" style="fill:#a6a6a6"></polygon><polygon points="439.2 350.19 304.52 350.19 304.52 336 354.94 336 371.88 237.42 434.06 237.42 439.2 350.19" style="fill:#dbdbdb"></polygon><polygon points="439.2 350.19 431.86 350.19 427.07 237.42 434.06 237.42 439.2 350.19" style="fill:#a6a6a6"></polygon><rect x="166.26" y="269.58" width="79.78" height="188.5" transform="translate(412.29 727.65) rotate(180)" style="fill:#FFC727"></rect><rect x="166.26" y="269.58" width="79.78" height="188.5" transform="translate(412.29 727.65) rotate(180)" style="opacity:0.30000000000000004"></rect><rect x="391.79" y="269.58" width="79.78" height="188.5" transform="translate(863.36 727.65) rotate(180)" style="fill:#FFC727"></rect><rect x="166.26" y="269.58" width="225.53" height="54.8" transform="translate(558.05 593.95) rotate(180)" style="fill:#FFC727"></rect><rect x="166.26" y="269.58" width="225.53" height="54.8" transform="translate(558.05 593.95) rotate(180)" style="opacity:0.2"></rect><polygon points="391.28 296.98 363.15 297.16 335.02 297.22 278.77 297.35 222.51 297.23 194.39 297.16 166.26 296.98 194.39 296.79 222.51 296.73 278.77 296.6 335.02 296.73 363.15 296.79 391.28 296.98" style="opacity:0.1"></polygon><rect x="381.06" y="269.58" width="10.73" height="188.5" transform="translate(772.85 727.65) rotate(180)" style="fill:#FFC727"></rect><rect x="381.06" y="269.58" width="10.73" height="188.5" transform="translate(772.85 727.65) rotate(180)" style="opacity:0.2"></rect><rect x="166.26" y="269.58" width="10.73" height="188.5" transform="translate(343.25 727.65) rotate(180)" style="fill:#FFC727"></rect><rect x="166.26" y="269.58" width="10.73" height="188.5" transform="translate(343.25 727.65) rotate(180)" style="opacity:0.2"></rect></g><g id="freepik--Device--inject-42"><rect x="335.94" y="266.59" width="66.74" height="2.99" style="fill:#455a64"></rect><rect x="335.94" y="266.59" width="33.59" height="2.99" style="fill:#37474f"></rect><polygon points="365.91 269.58 300.87 269.58 292.37 225.41 357.41 225.41 365.91 269.58" style="fill:#455a64"></polygon><path d="M333.1,247.49a3.57,3.57,0,0,1-3.61,4,4.41,4.41,0,0,1-4.31-4,3.57,3.57,0,0,1,3.61-4A4.41,4.41,0,0,1,333.1,247.49Z" style="fill:#fff"></path></g><g id="freepik--Floor--inject-42"><polygon points="28.43 457.98 83.82 457.74 139.22 457.65 250 457.48 360.78 457.65 416.18 457.73 471.57 457.98 416.18 458.22 360.78 458.31 250 458.48 139.22 458.31 83.82 458.22 28.43 457.98" style="fill:#263238"></polygon></g><g id="freepik--Character--inject-42"><path d="M342.58,458.8c-2.44.81-72.25.41-74.9-1.3-1-.63-6.21-65.49-6.21-65.49l45.22,0,4.16,42.48s26.65,12.11,29.37,14.29S345,458,342.58,458.8Z" style="fill:#ad6359"></path><path d="M267.68,457.5c2.64,1.71,72.45,2.12,74.9,1.3s.33-7.82-2.37-10c-1.52-1.22-10.62-5.59-18.3-9.17,5.16,2.55,15.89,11.49-16,7-21.59-3.07-34.61-5.82-40.5-7.32C265.7,449.29,266.81,457,267.68,457.5Z" style="fill:#263238"></path><path d="M316.46,419.54l-60.81,1.09s.31-106.29,0-107.82c-.51-2.63-34.95-129.19-34.95-129.19h44.2s7.25,22.18,15.54,47.81c10.39,32.13,22.4,69.66,23.83,75.74C307.77,322,316.46,419.54,316.46,419.54Z" style="fill:#37474f"></path><path d="M255.65,312.73c-1-4.52-34.92-129.11-34.92-129.11h21.73Z" style="fill:#263238"></path><path d="M179.48,457.52c-2.45-.8-58.35-42.6-59.47-45.55-.44-1.11,5.18-9.61,12.26-19.69l.22-.31c1.46-2.08,28.31-35.19,28.31-35.19l35.78,26.62-27.72,35.14-.47.6s14.24,25.57,15.13,28.94S181.92,458.33,179.48,457.52Z" style="fill:#ad6359"></path><path d="M128.77,397.3c-5.34,7.77-9.13,13.75-8.76,14.67,1.12,2.95,57,44.75,59.47,45.55s4.91-6.09,4-9.44c-.54-2.05-6-12.35-10.26-20.09,2.7,5.47,5.05,16.65-17.56-4.11C141.75,411.07,133.36,402.36,128.77,397.3Z" style="fill:#263238"></path><path d="M262.68,183.62s-1.14,36-7.88,43.43c0,0-11.21,72.16-13.66,92.24s-50.09,104.38-50.09,104.38l-55.42-42s59.25-66,59.43-67.41c1.35-10.57,8.61-83.06,8-84.89-6.25-18.64,3.92-45.79,3.92-45.79Z" style="fill:#37474f"></path><path d="M265.41,220.88A64.78,64.78,0,0,1,254,226.47a121.08,121.08,0,0,1-12,4.2c-.15,0-.08.26.07.22,4-1.1,8-1.88,11.86-3.24-.33,1.32-.51,2.7-.73,4-.29,1.71-.56,3.42-.82,5.14-.51,3.43-1,6.88-1.43,10.32-.93,6.88-1.91,13.76-2.83,20.64-.52,3.84-1,7.68-1.35,11.53,0,.17.26.19.29,0,1.36-6.8,2.28-13.67,3.29-20.53s2.13-13.72,3.07-20.59c.27-2,.53-3.94.76-5.91a44.25,44.25,0,0,0,.49-4.89l.07,0a37.15,37.15,0,0,0,10.86-6.26C265.75,221,265.56,220.78,265.41,220.88Z" style="fill:#263238"></path><path d="M258.47,190.08c0-.16-.32-.17-.31,0a158.35,158.35,0,0,1,.7,15.93c0,2.46-.69,16.15-5,15.57-.72-.1-1.15-.77-1.36-1.83a16.88,16.88,0,0,1,.17-4.19c.2-2.87.32-5.74.29-8.62a78.41,78.41,0,0,0-1.67-16,.14.14,0,0,0-.28,0,148,148,0,0,1,.79,22.17c-.2,3.57-1.48,9,2.25,9.22s5.38-8.89,5.61-11.36A81.58,81.58,0,0,0,258.47,190.08Z" style="fill:#263238"></path><path d="M254,221.94a21.71,21.71,0,0,0-.69,2.89,6.18,6.18,0,0,0-.18,2.34c0,.14.23.14.3,0a8.19,8.19,0,0,0,.77-2.33c.24-.9.5-1.79.72-2.69A.48.48,0,0,0,254,221.94Z" style="fill:#263238"></path><path d="M218.44,105a3.08,3.08,0,0,0,2.26,5.55,3.36,3.36,0,0,0,0,1.3,3.41,3.41,0,0,0,3.76,2.6,2.88,2.88,0,0,0,.05,1.09,3.08,3.08,0,0,0,3.7,2.31,3,3,0,0,0,1.72-1.1,3.09,3.09,0,0,0,3.64,2.06,3,3,0,0,0,1.17-.56,2.74,2.74,0,0,0,.05.28,3.09,3.09,0,0,0,5.86.48,3,3,0,0,0,3.47,1.7,3.08,3.08,0,0,0,2.27-2.15,3.35,3.35,0,0,0,2.24.24,3.29,3.29,0,0,0,2.12-1.54,3.39,3.39,0,0,0,5.18-2.69,3.31,3.31,0,0,0,1.21,0,3.07,3.07,0,0,0,2.37-3.3,3.3,3.3,0,0,0,1.5,0,3.39,3.39,0,0,0,2.55-4.07,3.27,3.27,0,0,0-.44-1,2,2,0,0,0,.54-.06,3.07,3.07,0,0,0,1.51-5.16,3.38,3.38,0,0,0,1.33-5.61A3.41,3.41,0,0,0,268,91.69a3.34,3.34,0,0,0-1.89-2.3,3.08,3.08,0,0,0-1-4.45,3.35,3.35,0,0,0,.7-2.93,3.39,3.39,0,0,0-3-2.62,3.16,3.16,0,0,0,0-1.47,3.1,3.1,0,0,0-3.3-2.38,3.23,3.23,0,0,0,0-1.45,3.39,3.39,0,0,0-4.07-2.54,3,3,0,0,0-.74.27,3.35,3.35,0,0,0-.08-.54,3.4,3.4,0,0,0-4.07-2.54,2.69,2.69,0,0,0-.79.3,2.84,2.84,0,0,0-.08-1,3.39,3.39,0,0,0-4.08-2.55,3.33,3.33,0,0,0-2.16,1.59,3.38,3.38,0,0,0-5.27.48,3.08,3.08,0,0,0-3.4-1.54,3.12,3.12,0,0,0-2.24,2,3.08,3.08,0,0,0-4.92,2.15,3.32,3.32,0,0,0-2.7-.52,3.4,3.4,0,0,0-2.64,3.39,2.83,2.83,0,0,0-1.12,0,3.08,3.08,0,0,0-2.31,3.7,2.89,2.89,0,0,0,.45,1l-.2,0A3.39,3.39,0,0,0,216.46,82a2.94,2.94,0,0,0,.36.92A2.85,2.85,0,0,0,216,83a3.08,3.08,0,0,0-.92,5.62,3.08,3.08,0,0,0,.4,4.9,3.39,3.39,0,0,0,1.31,6.3,3,3,0,0,0-.84,2.87A3.07,3.07,0,0,0,218.44,105Z" style="fill:#263238"></path><path d="M251.22,121.69c11.92,5.83,48.15,28.86,46.78,40.1-1.3,10.78-13.38,12.88-24.84,4-8.21-6.35-19.44-21.63-26.46-32.7C241,124.13,240.19,116.29,251.22,121.69Z" style="fill:#ad6359"></path><path d="M251.22,121.69c11.92,5.83,48.15,28.86,46.78,40.1-1.3,10.78-13.38,12.88-24.84,4-8.21-6.35-19.44-21.63-26.46-32.7C241,124.13,240.19,116.29,251.22,121.69Z" style="fill:#FFC727"></path><path d="M263,170.88l2.12,13.36L207,184.11s1.66-42.9,17.93-59.53c8.13-8.32,17.36-7.4,23.08-1.25,1.45,1.56,18.55,22.6,20.16,31.64C269.54,163,263,170.88,263,170.88Z" style="fill:#ad6359"></path><path d="M263,170.88l-13.61.57c-3.09.12-25.16,3-41-1.77a154.91,154.91,0,0,1,3.9-19.6c3.33-.11,8.89-.09,11.49-.27,1.05-.08,14.27-2.48,15.8-2.48a60.13,60.13,0,0,1,13.37,2.06s6.3-2.93,10.44-2.68a3.42,3.42,0,0,1,1.59.49,28.14,28.14,0,0,1,3.2,7.77C269.54,163,263,170.88,263,170.88Z" style="fill:#ebebeb"></path><path d="M253.23,166.62a63.41,63.41,0,0,0-9.18,1.6c-1.5.39-3,.86-4.43,1.36-.73.24-1.46.46-2.2.68a9.58,9.58,0,0,1-2.37.47c-.07,0-.06.11,0,.11a15.79,15.79,0,0,0,2.28-.06,16,16,0,0,0,2.17-.43c1.52-.39,3-.85,4.54-1.25,3.06-.81,6.11-1.63,9.22-2.22C253.42,166.85,253.38,166.61,253.23,166.62Z" style="fill:#263238"></path><path d="M260.92,169.3a70.61,70.61,0,0,0-7.69-.3c-1.29,0-2.56.13-3.84.26-.61.07-1.22.14-1.82.23s-1.33.27-2,.35c-.07,0-.07.12,0,.11.64-.06,1.28,0,1.92,0l1.92-.07c1.28,0,2.56-.07,3.84-.12,2.56-.11,5.11-.2,7.67-.22C261.06,169.51,261.05,169.31,260.92,169.3Z" style="fill:#263238"></path><polygon points="267.52 189.08 205.28 189.08 206.25 183.62 266.56 183.62 267.52 189.08" style="fill:#263238"></polygon><path d="M260.26,190.62H246.47v-8.29h13.79Zm-11.79-2h9.79v-4.29h-9.79Z" style="fill:#FFC727"></path><path d="M235.36,118.53s3.78,37.83,3.78,39.84-3.69,71-3.69,71L192.08,218l14.25-39.81s1.14-28.53,15.08-49.44C225.67,122.36,230.66,118.92,235.36,118.53Z" style="fill:#FFC727"></path><path d="M239.14,158.37c0,.9-.73,15.12-1.55,30.6l-1-26.06-4.18-17.83,3.74-7.08-5.58-3.91,4.79-15.56S239.14,156.36,239.14,158.37Z" style="opacity:0.1"></path><path d="M248,123.33s17,24.82,17.09,30.94a44.07,44.07,0,0,1-3.1,16.84l11.34,52.71,5.15-4.66-14.47-48s5-7.19,4.7-15C268.34,146,248,123.33,248,123.33Z" style="fill:#FFC727"></path><path d="M262,171.11s3.42-13.29,2.38-18.5S248,123.33,248,123.33l9.59,12-.73.61,6.1,7.25a34.76,34.76,0,0,1,2.35,13.2,42.34,42.34,0,0,1-2.9,14.49l3.12,16.66Z" style="fill:#FFC727"></path><path d="M262,171.11s3.42-13.29,2.38-18.5S248,123.33,248,123.33l9.59,12-.73.61,6.1,7.25a34.76,34.76,0,0,1,2.35,13.2,42.34,42.34,0,0,1-2.9,14.49l3.12,16.66Z" style="opacity:0.1"></path><path d="M268.19,161.3a25.5,25.5,0,0,0,.17-6.35,19.14,19.14,0,0,0-2.14-5.92c-.94-1.9-2-3.75-3.09-5.58s-2.21-3.65-3.36-5.45q2,2.53,3.69,5.24c1.15,1.81,2.23,3.65,3.2,5.57a17.91,17.91,0,0,1,2.06,6.1A21.41,21.41,0,0,1,268.19,161.3Z" style="fill:#263238"></path><path d="M261.2,139.05a11.17,11.17,0,0,1,1.09,1.7,5.36,5.36,0,0,1,.66,1.91,6.24,6.24,0,0,0-.42-.91l-.47-.89C261.77,140.27,261.45,139.68,261.2,139.05Z" style="fill:#263238"></path><path d="M176,273.65l52.84,8.79c14.28,2.37,13.88-9.43,12.45-22s-3.49-31.58-16.25-33.7l-13.71-2.28-13.73-2.28c-12.76-2.12-20.86,15.21-26.28,26.63S161.68,271.28,176,273.65Z" style="fill:#a6a6a6"></path><path d="M220.47,232.48a4.44,4.44,0,1,0,5.1-3.65A4.45,4.45,0,0,0,220.47,232.48Z" style="opacity:0.1"></path><path d="M191.26,227.62a4.44,4.44,0,1,0,5.11-3.65A4.45,4.45,0,0,0,191.26,227.62Z" style="opacity:0.1"></path><path d="M221.88,232.71a3,3,0,1,0,3.46-2.47A3,3,0,0,0,221.88,232.71Z" style="fill:#263238"></path><path d="M192.67,227.86a3,3,0,1,0,3.46-2.47A3,3,0,0,0,192.67,227.86Z" style="fill:#263238"></path><path d="M225.35,235a1.87,1.87,0,0,1-.4,0,1.8,1.8,0,0,1-1.36-2.16c2.62-11.71,8-43.74,1.48-51.25a3.68,3.68,0,0,0-3.31-1.36,1.81,1.81,0,1,1-.28-3.6,7.32,7.32,0,0,1,6.32,2.59c3.89,4.48,4.92,15.08,3.09,31.49-1.34,11.94-3.76,22.81-3.78,22.92A1.8,1.8,0,0,1,225.35,235Z" style="fill:#a6a6a6"></path><polygon points="267.15 189.41 255.72 222.64 237.05 217.83 243.09 183.21 267.15 189.41" style="fill:#FFC727"></polygon><rect x="241.03" y="183.14" width="28.33" height="5.11" transform="translate(54.37 -57.77) rotate(14.44)" style="fill:#455a64"></rect><polygon points="267.67 186.27 243.99 180.18 246.81 174.98 267.71 180.36 267.67 186.27" style="fill:#37474f"></polygon><path d="M257.15,205.24c-1.13,4.4-4.95,7.22-8.53,6.3s-5.56-5.24-4.43-9.64,5-7.23,8.54-6.31S258.29,200.83,257.15,205.24Z" style="fill:#fff"></path><path d="M221.05,127.85c-21.73,25.18-39.12,60.55-33,68.13,8,9.86,20.13,17.42,31.79,22,3.7,1.43,17.39-25.6,13.66-27.6-6.34-3.41-17.59-10.54-18.09-10.65-1.07-.26,12.09-33.49,16.88-45.95C239.56,114.88,230.61,116.77,221.05,127.85Z" style="fill:#ad6359"></path><path d="M268.11,205.25c0,3.28-3.26,4.29-3.26,4.29a7,7,0,0,1,1,4.66c-.54,2.83-5.22,3.22-5.22,3.22a8.66,8.66,0,0,1,.24,5.08c-.8,2.66-5.46,3.73-5.46,3.73a7.6,7.6,0,0,1-2.6,4.6c-3.85,3-10.81.41-15.26-1.18S222,219.4,219.67,218l9.94-28.61s22,1.44,26.92,4.05C260.71,195.6,268.13,201.57,268.11,205.25Z" style="fill:#ad6359"></path><path d="M264.81,209c-3.88-3.4-8.56-5.47-13.11-7.8a.09.09,0,0,0-.08.16c4.55,2.26,8.6,5.4,13.05,7.84A.12.12,0,0,0,264.81,209Z" style="fill:#263238"></path><path d="M260.64,217a13.51,13.51,0,0,0-3.11-1.67c-1.13-.51-2.28-1-3.43-1.47-2.31-.95-4.64-1.85-7-2.68-.1,0-.19.11-.08.16,2.3.95,4.59,1.93,6.85,3,1.13.52,2.25,1.06,3.37,1.6a16.19,16.19,0,0,0,3.24,1.38A.18.18,0,0,0,260.64,217Z" style="fill:#263238"></path><path d="M255.28,226.19a9.12,9.12,0,0,0-2.87-1.35l-3.18-1.25c-2.11-.85-4.22-1.69-6.3-2.61a.09.09,0,1,0-.08.16c2.11.94,4.21,1.91,6.33,2.84l3.12,1.34a8.68,8.68,0,0,0,2.95,1A.06.06,0,0,0,255.28,226.19Z" style="fill:#263238"></path><path d="M231.79,188l-15.68,29.87s-28.42-15.88-30.52-25,17.27-50.49,35.14-66.16c9-7.88,19.28-14.81,12.59,7.49s-16.57,44-16.38,44.42S231.79,188,231.79,188Z" style="fill:#FFC727"></path><path d="M216,201.85c1.79-3.36,3.61-6.7,5.27-10.12.94-1.94,1.9-3.88,2.82-5.84,0-.07-.08-.14-.12-.07-1.93,3.29-3.86,6.59-5.63,10s-3.57,6.71-5.29,10.1c-1,1.93-1.9,3.88-2.76,5.87,0,0,.05.08.07,0C212.36,208.58,214.16,205.22,216,201.85Z" style="fill:#263238"></path><path d="M216.75,216.66c-.18.43-.37.85-.56,1.27l0,.08-.09,0c-1.75-.84-3.44-1.79-5.14-2.73s-3.35-2-5-3-3.25-2.12-4.8-3.3a45.63,45.63,0,0,1-4.47-3.74c3.15,2.27,6.4,4.35,9.67,6.42l9.82,6.2-.12,0C216.26,217.45,216.5,217.06,216.75,216.66Z" style="fill:#263238"></path><path d="M231.24,189.08l.51-1.08,0,.06q-6.26-3.45-12.35-7.19c-.51-.32-1-.63-1.51-1-.25-.17-.5-.33-.75-.52l-.19-.14-.09-.07-.14-.13c-.08-.11-.18-.16-.22-.33a.76.76,0,0,1,0-.3,1.06,1.06,0,0,1,0-.14c.33-1.22.75-2.3,1.15-3.43.82-2.24,1.65-4.47,2.51-6.69,1.76-4.43,3.49-8.86,5.3-13.26l2.72-6.6c.93-2.2,1.85-4.39,2.72-6.6-1.39,4.55-3.09,9-4.73,13.47s-3.41,8.89-5.08,13.34l-2.58,6.65c-.4,1.11-.85,2.25-1.16,3.32l0,.07a.1.1,0,0,0,0-.07s0,0,0,0,0,0,0,0l.08.06.17.13c.22.18.47.34.71.51l1.46,1c4,2.63,8,5.17,12,7.78l0,0,0,0Z" style="fill:#263238"></path><path d="M227.58,150.42a15.18,15.18,0,0,1,1.5-2.82,18,18,0,0,1,2-2.52,9.5,9.5,0,0,1-1.33,2.93A10.36,10.36,0,0,1,227.58,150.42Z" style="fill:#263238"></path><path d="M195.64,230a1.45,1.45,0,0,1-.35,0,1.8,1.8,0,0,1-1.42-2.12,195.27,195.27,0,0,1,7-24.69c6.18-17,13.13-26,20.65-26.56a1.81,1.81,0,0,1,.28,3.6c-12.23,1-21.72,35.23-24.35,48.36A1.8,1.8,0,0,1,195.64,230Z" style="fill:#a6a6a6"></path><path d="M282.22,167.44c6.56,6.59,15.78-.83,15.84-6.84.13-14.13-6.56-32.15-12.49-43.46-1.91-3.64-27,8-25.63,12.14C261.62,134.28,269.37,154.51,282.22,167.44Z" style="fill:#ad6359"></path><path d="M258.69,131.12l33.11-13.47s9.17,34,5.92,45.73c-3.07,11-13.16,7.45-18.3,3C272.3,160.27,258.69,131.12,258.69,131.12Z" style="fill:#FFC727"></path><path d="M277.5,163.91c-.39-.57-.77-1.15-1.17-1.71-.81-1.16-1.58-2.35-2.35-3.53-1.55-2.39-3.08-4.79-4.52-7.25-2.88-4.91-9.73-18.94-10.46-20.35,0-.07-.4,0-.29.33,0,.21,4.17,9.45,5.44,12a128.35,128.35,0,0,0,8.69,14.81l.16.22c.05.2.11.4.16.59a11.49,11.49,0,0,0,.56,1.41,13.62,13.62,0,0,0,1.53,2.57.05.05,0,0,0,.09-.06A18.49,18.49,0,0,1,274,160.2l-.42-1c.68.95,1.37,1.89,2.06,2.83.48.65,1,1.28,1.48,1.9a23.29,23.29,0,0,0,1.5,1.79c0,.05.11,0,.08-.07C278.35,165.07,277.89,164.51,277.5,163.91Z" style="fill:#263238"></path><path d="M275.69,132.7c3.56-1.5,7.14-3,10.65-4.59,2-.93,4-1.85,6-2.8.07,0,0-.18-.05-.15-3.63,1.35-7.27,2.71-10.84,4.23s-7.13,3-10.67,4.57q-3,1.33-5.95,2.87s0,.09,0,.08C268.52,135.69,272.1,134.2,275.69,132.7Z" style="fill:#263238"></path><path d="M285.58,118.59c0-3.29-1.57-18.39-2.94-22.49s-6.16-15.64-9.41-14.91-2.11,4.21-2.11,4.21-2.8-4.54-6-3.51-1.27,6.39-1.27,6.39-3.21-4.46-6.33-3.2-.27,6.32-.27,6.32-2.74-4.21-4.88-2.09c-2.57,2.54,3.37,9.74,4.53,14.39.27,1,3.86,21.76,3.86,21.76Z" style="fill:#ad6359"></path><path d="M257,91c4.35,5.31,5.33,8.38,6.17,15.09,0,.13.22.13.21,0-.22-6.64-.9-10.68-6.14-15.31C257,90.51,256.81,90.71,257,91Z" style="fill:#263238"></path><path d="M263.5,87.87c4,5.9,5.14,9.23,6.53,16.19,0,.09.19.07.18,0-.8-6.94-1.57-11-6.38-16.32C263.61,87.47,263.32,87.6,263.5,87.87Z" style="fill:#263238"></path><path d="M271.18,85.76c3.49,6,4.86,9.59,5.34,16.52a.13.13,0,0,0,.26,0c.19-7.11-1.48-11.61-5.41-16.61C271.1,85.33,271,85.38,271.18,85.76Z" style="fill:#263238"></path><path d="M276.19,83.51l-.64,32.78a2,2,0,0,1-1.6,1.88l-15.5,2.42a1.31,1.31,0,0,1-1.53-1.4l.65-32.77a2,2,0,0,1,1.59-1.89l15.5-2.41A1.29,1.29,0,0,1,276.19,83.51Z" style="fill:#37474f"></path><path d="M273.72,82.26l-15.49,2.42a2,2,0,0,0-1.6,1.88L256,119.34a1.31,1.31,0,0,0,1.54,1.4L273,118.32a2,2,0,0,0,1.6-1.89l.65-32.77A1.31,1.31,0,0,0,273.72,82.26Zm-.07,33.31a1.84,1.84,0,0,1-1.43,1.78l-13.86,2.17a1.22,1.22,0,0,1-1.38-1.35l.6-30.52c0-1.75.67-1.94,1.44-2.06l2.78-.43c.16,0,.29.14.28.37v.11c0,.54.28.5.64.44l6.42-1c.36-.06.65-.1.66-.65v-.1a.46.46,0,0,1,.3-.47l2.78-.43c.77-.12,1.4,0,1.36,1.62Z" style="fill:#263238"></path><path d="M266.82,84.76l-1.75.27a.09.09,0,0,1-.11-.09h0a.17.17,0,0,1,.11-.13l1.76-.27a.08.08,0,0,1,.1.09h0A.14.14,0,0,1,266.82,84.76Z" style="fill:#fff"></path><line x1="257.02" y1="116.24" x2="256.97" y2="116.25" style="fill:none"></line><path d="M274.25,85.05l-.6,30.52a1.84,1.84,0,0,1-1.43,1.78l-13.86,2.17a1.22,1.22,0,0,1-1.38-1.35l.6-30.52c0-1.75.67-1.94,1.44-2.06l2.78-.43c.16,0,.29.14.28.37v.11c0,.54.28.5.64.44l6.42-1c.36-.06.65-.1.66-.65v-.1a.46.46,0,0,1,.3-.47l2.78-.43C273.66,83.31,274.29,83.44,274.25,85.05Z" style="fill:#fff"></path><g id="freepik--u5Zjqx--inject-42"><path d="M261.31,85.92l0,0,0,0a.28.28,0,0,0-.25-.07.41.41,0,0,0-.26.15h0l0,0h0l0,0,.08-.06.11,0,.05,0h.17l.07,0,.06,0,0,0Z" style="fill:#a6a6a6"></path><path d="M260.83,86.12l0,0A.38.38,0,0,1,261,86a.27.27,0,0,1,.26,0l0,0a.22.22,0,0,0-.17,0A.32.32,0,0,0,260.83,86.12Z" style="fill:#a6a6a6"></path><path d="M261.13,86.12l0,0a.12.12,0,0,0-.09,0,.24.24,0,0,0-.09.06l0,0A.18.18,0,0,1,261.13,86.12Z" style="fill:#a6a6a6"></path><path d="M261,86.22a0,0,0,0,1,0,0s0,0,0,0a.07.07,0,0,1,0,0A0,0,0,0,1,261,86.22Z" style="fill:#a6a6a6"></path></g><path d="M258.69,86.41a.14.14,0,0,1,.11-.13.09.09,0,0,1,.11.1.14.14,0,0,1-.11.13A.1.1,0,0,1,258.69,86.41Z" style="fill:#a6a6a6"></path><path d="M259,86.36a.12.12,0,0,1,.11-.13.09.09,0,0,1,.11.09.14.14,0,0,1-.11.13A.09.09,0,0,1,259,86.36Z" style="fill:#a6a6a6"></path><path d="M259.39,86.3a.14.14,0,0,1,.11-.13.09.09,0,0,1,.11.1.15.15,0,0,1-.12.13A.09.09,0,0,1,259.39,86.3Z" style="fill:#a6a6a6"></path><path d="M259.73,86.25a.14.14,0,0,1,.12-.13.08.08,0,0,1,.1.09.13.13,0,0,1-.11.13A.09.09,0,0,1,259.73,86.25Z" style="fill:#a6a6a6"></path><path d="M260.08,86.19a.14.14,0,0,1,.11-.13.09.09,0,0,1,.11.1.14.14,0,0,1-.11.13A.09.09,0,0,1,260.08,86.19Z" style="fill:#a6a6a6"></path><polygon points="273 84.02 272.15 84.15 272.14 84.53 273 84.4 273 84.02" style="fill:#a6a6a6"></polygon><polygon points="271.89 84.83 271.9 83.94 273.26 83.73 273.24 84.61 271.89 84.83" style="fill:#fff"></polygon><polygon points="272.78 84.1 272.2 84.19 272.2 84.48 272.78 84.39 272.78 84.1" style="fill:#a6a6a6"></polygon><polygon points="273.1 84.31 273.02 84.32 273.03 84.09 273.11 84.08 273.1 84.31" style="fill:#a6a6a6"></polygon><path d="M268.79,117l-7,1.08a.2.2,0,0,0-.16.19.13.13,0,0,0,.15.14l7-1.09a.2.2,0,0,0,.16-.19A.13.13,0,0,0,268.79,117Z" style="fill:#a6a6a6"></path><path d="M267.22,99.34a2,2,0,0,1-1.59,1.85,1.29,1.29,0,0,1-1.54-1.36,2,2,0,0,1,1.6-1.86A1.3,1.3,0,0,1,267.22,99.34Z" style="fill:#455a64"></path><path d="M265.24,98.85a.2.2,0,0,0-.16.17.13.13,0,0,0,.15.14.21.21,0,0,0,.16-.18A.12.12,0,0,0,265.24,98.85Z" style="fill:#fff"></path><path d="M265.67,98.78a.18.18,0,0,0-.15.18.13.13,0,0,0,.15.13.18.18,0,0,0,.15-.18A.12.12,0,0,0,265.67,98.78Z" style="fill:#fff"></path><path d="M266.1,99a.2.2,0,0,0,.16-.18.13.13,0,0,0-.15-.13.19.19,0,0,0-.16.18A.13.13,0,0,0,266.1,99Z" style="fill:#fff"></path><path d="M265.23,99.28a.18.18,0,0,0-.15.18.12.12,0,0,0,.14.13.18.18,0,0,0,.16-.18A.13.13,0,0,0,265.23,99.28Z" style="fill:#fff"></path><path d="M265.66,99.21a.2.2,0,0,0-.15.18.13.13,0,0,0,.15.13.18.18,0,0,0,.15-.18A.13.13,0,0,0,265.66,99.21Z" style="fill:#fff"></path><path d="M266.1,99.14a.2.2,0,0,0-.15.18.11.11,0,0,0,.14.13.19.19,0,0,0,.16-.17A.13.13,0,0,0,266.1,99.14Z" style="fill:#fff"></path><path d="M265.22,99.71a.2.2,0,0,0-.15.18.12.12,0,0,0,.15.13.18.18,0,0,0,.15-.17A.13.13,0,0,0,265.22,99.71Z" style="fill:#fff"></path><path d="M265.66,99.65a.18.18,0,0,0-.16.17.13.13,0,0,0,.15.14.2.2,0,0,0,.15-.18A.11.11,0,0,0,265.66,99.65Z" style="fill:#fff"></path><path d="M266.09,99.58a.18.18,0,0,0-.15.18.12.12,0,0,0,.14.13.19.19,0,0,0,.16-.18A.13.13,0,0,0,266.09,99.58Z" style="fill:#fff"></path><path d="M265.65,100.08a.19.19,0,0,0-.16.18.13.13,0,0,0,.15.13.18.18,0,0,0,.15-.18A.12.12,0,0,0,265.65,100.08Z" style="fill:#fff"></path><path d="M271.57,103.33a2,2,0,0,1-1.6,1.86,1.3,1.3,0,0,1-1.54-1.37A2,2,0,0,1,270,102,1.3,1.3,0,0,1,271.57,103.33Z" style="fill:#455a64"></path><path d="M270.35,103.07a.42.42,0,0,1-.35.39.28.28,0,0,1-.33-.29.44.44,0,0,1,.35-.4A.29.29,0,0,1,270.35,103.07Z" style="fill:#fff"></path><path d="M270.57,104v.14a1.5,1.5,0,0,1-.32.19,1.06,1.06,0,0,1-.84,0v-.15a.73.73,0,0,1,.59-.68A.48.48,0,0,1,270.57,104Z" style="fill:#fff"></path><path d="M262.79,100a2,2,0,0,1-1.6,1.86,1.3,1.3,0,0,1-1.54-1.37,2,2,0,0,1,1.6-1.85A1.29,1.29,0,0,1,262.79,100Z" style="fill:#455a64"></path><path d="M261.2,101.18a0,0,0,0,1,0,0v-.43a.09.09,0,0,1,0,0s0,0,0,0v.43A.07.07,0,0,1,261.2,101.18Z" style="fill:#fff"></path><path d="M261.43,101.14l-.45.07s0,0,0,0a0,0,0,0,1,0,0l.45-.07s0,0,0,0A0,0,0,0,1,261.43,101.14Z" style="fill:#fff"></path><path d="M261.53,99.63v.63a.37.37,0,0,1-.3.34.23.23,0,0,1-.26-.12.28.28,0,0,1,0-.13v-.63a.36.36,0,0,1,.3-.34.26.26,0,0,1,.21.05.3.3,0,0,1,.08.19Z" style="fill:#fff"></path><path d="M261.21,100.75a.37.37,0,0,1-.29-.08.38.38,0,0,1-.13-.29v-.27a0,0,0,0,1,0,0,0,0,0,0,1,0,0v.26a.29.29,0,0,0,.1.25.3.3,0,0,0,.26.06.47.47,0,0,0,.35-.43V100a0,0,0,0,1,0,0s0,0,0,0v.25a.55.55,0,0,1-.42.51Z" style="fill:#fff"></path><path d="M267.13,104a2,2,0,0,1-1.6,1.85,1.29,1.29,0,0,1-1.53-1.36,2,2,0,0,1,1.6-1.86A1.3,1.3,0,0,1,267.13,104Z" style="fill:#455a64"></path><path d="M266.48,103.92v.41a.14.14,0,0,1-.14.14l-.17,0h-.09V104l.24-.1h0A.09.09,0,0,1,266.48,103.92Z" style="fill:#fff"></path><path d="M266,103.91l0,.59a.25.25,0,0,1-.2.24l-.69.11a.17.17,0,0,1-.2-.18v-.59a.28.28,0,0,1,.21-.24l.69-.1A.17.17,0,0,1,266,103.91Z" style="fill:#fff"></path><path d="M262.7,104.72a2,2,0,0,1-1.6,1.85,1.29,1.29,0,0,1-1.54-1.36,2,2,0,0,1,1.6-1.86A1.3,1.3,0,0,1,262.7,104.72Z" style="fill:#455a64"></path><path d="M261.73,104.77l-.5.08v-.51a.08.08,0,0,0-.1-.09.12.12,0,0,0-.09.11v.52l-.51.08a.12.12,0,0,0-.09.11.08.08,0,0,0,.09.09l.5-.08v.51c0,.06,0,.09.1.09a.12.12,0,0,0,.09-.12v-.51l.5-.08a.12.12,0,0,0,.1-.11C261.82,104.8,261.78,104.76,261.73,104.77Z" style="fill:#fff"></path><path d="M271.66,98.65a2,2,0,0,1-1.6,1.85,1.29,1.29,0,0,1-1.53-1.36,2,2,0,0,1,1.59-1.86A1.3,1.3,0,0,1,271.66,98.65Z" style="fill:#455a64"></path><path d="M270.87,98.7s0-.07,0-.11a1.72,1.72,0,0,0-.07-.21.56.56,0,0,0-.1-.15l-.06-.07h0l-.06.07,0,0a.67.67,0,0,1,.21.53.91.91,0,0,1-.23.59l0,0,.06,0h0l0-.07a.42.42,0,0,0,.09-.14,1,1,0,0,0,.07-.15,1.6,1.6,0,0,0,.05-.21s0-.06,0-.08Z" style="fill:#fff"></path><path d="M270.61,98.71a.49.49,0,0,0-.17-.34l-.09.1a.42.42,0,0,1,.14.35.6.6,0,0,1-.15.4l.08.08A.74.74,0,0,0,270.61,98.71Z" style="fill:#fff"></path><path d="M270.26,98.58l-.09.1a.21.21,0,0,1,.07.18.32.32,0,0,1-.08.21l.09.07A.4.4,0,0,0,270.26,98.58Z" style="fill:#fff"></path><polygon points="269.57 99.23 269.31 99.27 269.32 98.75 269.58 98.71 269.57 99.23" style="fill:#fff"></polygon><polygon points="269.58 98.71 270.06 98.43 270.05 99.36 269.57 99.23 269.58 98.71" style="fill:#fff"></polygon><path d="M267.26,111.75a2.32,2.32,0,0,1-1.89,2.19,1.53,1.53,0,0,1-1.81-1.61,2.33,2.33,0,0,1,1.89-2.19A1.53,1.53,0,0,1,267.26,111.75Z" style="fill:#FFC727"></path><path d="M266.46,111.89a.32.32,0,0,0,0-.09.43.43,0,0,0,0-.07l-.07-.06-.08,0a.87.87,0,0,0-.36-.09,2.45,2.45,0,0,0-.92.14,1.25,1.25,0,0,0-.37.21l-.08.07-.07.08,0,.06a.21.21,0,0,0-.05.13h0l.59-.1h0a.24.24,0,0,1,.17-.14,3.12,3.12,0,0,1,.52-.08.16.16,0,0,1,.17.08h0l.58-.09Z" style="fill:#fff"></path><path d="M264.36,112.34h0v.21s0,.08.07.07l.44-.07a.1.1,0,0,0,.08-.09v-.22Z" style="fill:#fff"></path><path d="M266.45,112l-.58.09c0,.08,0,.16,0,.23s0,.07.07.06l.45-.07a.08.08,0,0,0,.07-.08V112Z" style="fill:#fff"></path><path d="M263.67,95.45a.54.54,0,0,1,.45-.5.35.35,0,0,1,.27,0,.06.06,0,0,1,0,.09.07.07,0,0,1-.1,0,.24.24,0,0,0-.19,0,.3.3,0,0,0-.21.12.31.31,0,0,0-.09.22.25.25,0,0,0,.08.2.25.25,0,0,0,.21.06.38.38,0,0,0,.2-.1s.07,0,.09,0a.08.08,0,0,1,0,.1.62.62,0,0,1-.28.14A.37.37,0,0,1,263.67,95.45Z" style="fill:#263238"></path><path d="M264.74,95.66a.08.08,0,0,1-.07.08.07.07,0,0,1-.06,0V95a.08.08,0,0,1,.07-.08.06.06,0,0,1,.06.06v.21a.23.23,0,0,1,.38.17v.28a.1.1,0,0,1-.07.08s-.07,0-.07-.06v-.28a.11.11,0,0,0-.13-.11.17.17,0,0,0-.13.15Z" style="fill:#263238"></path><path d="M265.89,95.24v.24a.08.08,0,0,1-.07.08.07.07,0,0,1-.06,0,.29.29,0,0,1-.16.07.23.23,0,0,1-.2-.06.23.23,0,0,1-.07-.2.4.4,0,0,1,.08-.23.32.32,0,0,1,.2-.12.21.21,0,0,1,.16,0s0-.06.06-.06a.05.05,0,0,1,.07,0Zm-.12,0a.17.17,0,0,0,0-.12.14.14,0,0,0-.11,0,.22.22,0,0,0-.16.2.17.17,0,0,0,.05.12.1.1,0,0,0,.11,0,.24.24,0,0,0,.11-.06A.34.34,0,0,0,265.77,95.26Z" style="fill:#263238"></path><path d="M266.5,94.91a.08.08,0,0,1-.07.07l-.07,0s0,0-.06.06a.61.61,0,0,1-.05.11v.24a.08.08,0,0,1-.07.07.05.05,0,0,1-.06,0V95a.09.09,0,0,1,.06-.07s.07,0,.07,0h0s0,0,0,0a.39.39,0,0,1,.16-.07A.06.06,0,0,1,266.5,94.91Z" style="fill:#263238"></path><path d="M266.73,94.56s.07,0,.07.06l0,.72a.09.09,0,0,1-.06.08s-.07,0-.07-.06l0-.72A.09.09,0,0,1,266.73,94.56Z" style="fill:#263238"></path><path d="M267.08,94.6a.08.08,0,0,1-.06.08s-.07,0-.06-.06v0s0-.07.06-.07.07,0,.06,0Zm0,.22v.48a.08.08,0,0,1-.07.07.05.05,0,0,1-.06-.05v-.48a.08.08,0,0,1,.07-.08A.06.06,0,0,1,267.08,94.82Z" style="fill:#263238"></path><path d="M267.24,95a.37.37,0,0,1,.29-.35.25.25,0,0,1,.29.24h0s0,0-.06.06l-.38,0a.2.2,0,0,0,0,.08.21.21,0,0,0,.12,0l.12,0s.07,0,.09,0a.06.06,0,0,1,0,.08.36.36,0,0,1-.22.11A.24.24,0,0,1,267.24,95Zm.13-.08.34,0a.15.15,0,0,0-.18-.1A.2.2,0,0,0,267.37,95Z" style="fill:#263238"></path><path d="M264.38,89a.35.35,0,0,1,.28-.32.25.25,0,0,1,.17,0,0,0,0,0,1,0,.06s0,0-.06,0a.17.17,0,0,0-.12,0,.27.27,0,0,0-.14.07.24.24,0,0,0,0,.14.17.17,0,0,0,0,.13.14.14,0,0,0,.13,0,.23.23,0,0,0,.12-.06s0,0,.06,0,0,0,0,.06a.32.32,0,0,1-.17.09A.23.23,0,0,1,264.38,89Z" style="fill:#c7c7c7"></path><path d="M265.28,88.94v.15a.07.07,0,0,1,0,0s0,0,0,0l-.1,0a.16.16,0,0,1-.13,0,.16.16,0,0,1,0-.12.25.25,0,0,1,.05-.15.21.21,0,0,1,.13-.07.1.1,0,0,1,.09,0s0,0,0,0,0,0,0,0Zm-.08,0a.09.09,0,0,0,0-.07s0,0-.07,0a.08.08,0,0,0-.06,0,.11.11,0,0,0,0,.08.19.19,0,0,0,0,.08l.07,0,.07,0A.16.16,0,0,0,265.2,89Z" style="fill:#c7c7c7"></path><path d="M265.49,88.57s0,0,0,0v.45s0,0,0,0,0,0,0,0v-.45A0,0,0,0,1,265.49,88.57Z" style="fill:#c7c7c7"></path><path d="M265.67,88.54s0,0,0,0V89s0,0,0,0a0,0,0,0,1,0,0v-.44A0,0,0,0,1,265.67,88.54Z" style="fill:#c7c7c7"></path><path d="M265.89,88.56s0,0,0,0a0,0,0,0,1,0,0h0a0,0,0,0,1,0,0s0,0,0,0Zm0,.14V89a0,0,0,0,1,0,0s0,0,0,0v-.3a.07.07,0,0,1,0,0A0,0,0,0,1,265.89,88.7Z" style="fill:#c7c7c7"></path><path d="M266.32,88.75v.18a0,0,0,0,1,0,0s0,0,0,0v-.18a.07.07,0,0,0-.07-.07.11.11,0,0,0-.08.09V89h0s0,0,0,0,0,0,0,0v-.3a0,0,0,0,1,0-.05s0,0,0,0l.08,0A.13.13,0,0,1,266.32,88.75Z" style="fill:#c7c7c7"></path><path d="M266.8,88.71v.14a.22.22,0,0,1-.18.21h-.08a0,0,0,0,1,0,0,.05.05,0,0,1,.05,0h0a.13.13,0,0,0,.1-.1.18.18,0,0,1-.1,0,.13.13,0,0,1-.12,0,.19.19,0,0,1-.05-.13.24.24,0,0,1,.05-.14.26.26,0,0,1,.13-.08.16.16,0,0,1,.1,0,0,0,0,0,1,0,0s0,0,0,0v.16Zm-.08,0a.11.11,0,0,0,0-.08l-.07,0a.12.12,0,0,0-.07,0,.11.11,0,0,0,0,.08.08.08,0,0,0,0,.07.06.06,0,0,0,.07,0,.13.13,0,0,0,.07,0A.19.19,0,0,0,266.72,88.72Z" style="fill:#c7c7c7"></path><path d="M267,88.75a0,0,0,0,1,.05,0,.08.08,0,0,1-.05.07.06.06,0,0,1-.06-.05A.09.09,0,0,1,267,88.75Z" style="fill:#c7c7c7"></path><path d="M267.17,88.73s.05,0,.05,0a.06.06,0,0,1-.05.06.05.05,0,0,1-.06,0A.06.06,0,0,1,267.17,88.73Z" style="fill:#c7c7c7"></path><path d="M267.34,88.7a0,0,0,0,1,.05,0,.06.06,0,0,1-.05.06,0,0,0,0,1-.06,0A.09.09,0,0,1,267.34,88.7Z" style="fill:#c7c7c7"></path><path d="M266.91,93.55a2.45,2.45,0,0,1-.63.36,2,2,0,0,1-1.64,0,1.73,1.73,0,0,1-.94-1.21,2.69,2.69,0,0,1,1.64-2.93A1.82,1.82,0,0,1,267.92,91,2.63,2.63,0,0,1,266.91,93.55Z" style="fill:#c7c7c7"></path><path d="M266.47,91.48a.84.84,0,0,1-.67.78.54.54,0,0,1-.64-.57.81.81,0,0,1,.67-.78A.54.54,0,0,1,266.47,91.48Z" style="fill:#fff"></path><path d="M266.91,93.27v.28a2.45,2.45,0,0,1-.63.36,2,2,0,0,1-1.64,0v-.28a1.44,1.44,0,0,1,1.16-1.34A.94.94,0,0,1,266.91,93.27Z" style="fill:#fff"></path><path d="M260.27,129.56s-5.82-6.34-7.76-9.68-4.59-18.48-1.36-19.24c4.18-1,7.43,7.46,8.48,11.8a17.38,17.38,0,0,1,12,7.51C275.29,125.5,260.27,129.56,260.27,129.56Z" style="fill:#ad6359"></path><path d="M235.62,121.41c.13,1.16,4.71,9.18,9.93,9.53,1.71.12,2.74-9.15,2.74-9.15l.23-.66,3.26-9.34-10.42-8.52-1.52-1.14s-.72,2.61-1.58,5.87c0,.15-.09.3-.13.46s-.1.36-.15.53c-.13.49-.27,1-.39,1.48s-.2.75-.29,1.15-.18.79-.28,1.19A63.41,63.41,0,0,0,235.62,121.41Z" style="fill:#ad6359"></path><path d="M251.78,111.79l-3.13,9A21.23,21.23,0,0,1,238,108.92l.25-.92c.87-3.26,1.59-5.87,1.59-5.87l1.52,1.13Z" style="fill:#263238"></path><path d="M265.77,97.93c-.11,17.35-10.51,19.24-14.25,19.21-3.4,0-15-.55-16.64-17.81s6.42-22.69,14.19-23S265.88,80.59,265.77,97.93Z" style="fill:#ad6359"></path><path d="M262.94,94.48c-.4-.07-.76-.21-1.16-.32a1.93,1.93,0,0,1-1.11-.55.6.6,0,0,1,.05-.75,1.52,1.52,0,0,1,1.52-.27,2.3,2.3,0,0,1,1.36.88A.66.66,0,0,1,262.94,94.48Z" style="fill:#263238"></path><path d="M251.77,94.33a9.49,9.49,0,0,0,1.19-.18,2,2,0,0,0,1.17-.4.63.63,0,0,0,.05-.76,1.55,1.55,0,0,0-1.48-.45,2.26,2.26,0,0,0-1.46.71A.66.66,0,0,0,251.77,94.33Z" style="fill:#263238"></path><path d="M254,97.9c0-.05-.09,0-.09.1,0,1.18-.22,2.53-1.3,2.88,0,0,0,.07,0,.07C253.91,100.82,254.17,99,254,97.9Z" style="fill:#263238"></path><path d="M253,96.63c-1.89-.22-2.19,3.58-.44,3.78S254.56,96.81,253,96.63Z" style="fill:#263238"></path><path d="M252.22,96.77c-.35.19-.71.54-1.11.55s-.79-.41-1.06-.82c0,0-.06,0-.07,0-.06.73.16,1.5.93,1.66s1.27-.45,1.5-1.16C252.46,96.9,252.36,96.69,252.22,96.77Z" style="fill:#263238"></path><path d="M260.52,98.14s.09.06.08.11c-.11,1.18,0,2.54,1,3,0,0,0,.07,0,.06C260.29,101.05,260.22,99.24,260.52,98.14Z" style="fill:#263238"></path><path d="M261.65,97c1.91,0,1.81,3.79,0,3.81S260.06,97,261.65,97Z" style="fill:#263238"></path><path d="M262.44,97.25c.3.21.59.59.94.62s.74-.37,1-.75c0,0,.05,0,.05,0,0,.73-.26,1.48-1,1.6s-1.09-.53-1.25-1.26C262.21,97.37,262.32,97.17,262.44,97.25Z" style="fill:#263238"></path><path d="M253,107.36c.25.31.48.72.9.81a3.18,3.18,0,0,0,1.3-.14s.07,0,0,.06a1.57,1.57,0,0,1-1.56.46,1.27,1.27,0,0,1-.8-1.15C252.82,107.33,252.92,107.31,253,107.36Z" style="fill:#263238"></path><path d="M253.75,104.36a4,4,0,0,0,2.64,1.72,4.82,4.82,0,0,0,1.42,0,1.18,1.18,0,0,0,.27,0l.25,0a.28.28,0,0,0,.23-.26h0a.49.49,0,0,0,0-.12h0v-.1c0-.89-.09-2.24-.09-2.24.33.16,2,.89,2,.43a59.18,59.18,0,0,0-1.63-11.89.11.11,0,0,0-.21,0c.11,3.7.87,7.36,1,11.08a6.78,6.78,0,0,0-1.86-.54c-.12,0,.24,2.61.2,3a.16.16,0,0,1,0,0,5.47,5.47,0,0,1-4.08-1.23C253.77,104.19,253.68,104.27,253.75,104.36Z" style="fill:#263238"></path><path d="M257.19,105.83a4.14,4.14,0,0,1-1.72,1.27,1.8,1.8,0,0,1-1.15.05c-.83-.23-.84-1-.67-1.65a4.42,4.42,0,0,1,.39-1A5.5,5.5,0,0,0,257.19,105.83Z" style="fill:#263238"></path><path d="M255.47,107.1a1.8,1.8,0,0,1-1.15.05c-.83-.23-.84-1-.67-1.65A2,2,0,0,1,255.47,107.1Z" style="fill:#ff98b9"></path><path d="M235.52,98.85c2.81.45,3.95-5.42,3.95-5.42s5.74.48,8.31-7.63a12.71,12.71,0,0,1-3.1,6.63s10.22-.25,15.18-8.38c0,0-2.05,4.18-3.77,5.58,0,0,4.35-.84,6.7-4.12,0,0,1.37,5,2.63,6.51,0,0,1-17.77-15.55-17.23,0,0-10.35-.15-14.7,7.69S235.52,98.85,235.52,98.85Z" style="fill:#263238"></path><path d="M251.52,117.14a15.82,15.82,0,0,0,5.27-1.35,14.52,14.52,0,0,0,2.37-1.33,21.9,21.9,0,0,0,2.16-1.71,10.86,10.86,0,0,1-1.93,2,10.32,10.32,0,0,1-2.39,1.47,10.72,10.72,0,0,1-2.69.82A8.72,8.72,0,0,1,251.52,117.14Z" style="fill:#263238"></path><path d="M250.56,80.36c-.4,1.73-3.58,2.46-7.09,1.64s-6-2.9-5.62-4.63,3.58-2.46,7.09-1.63S251,78.63,250.56,80.36Z" style="fill:#FFC727"></path><path d="M249.25,79.68c-.31,1.31-2.72,1.87-5.39,1.24s-4.58-2.2-4.27-3.51,2.72-1.88,5.39-1.25S249.56,78.36,249.25,79.68Z" style="fill:#263238"></path><path d="M249.53,78.34l-.9-.67c1.7-2.27,4.68-1.74,6-1.14l-.45,1C254.07,77.5,251.11,76.22,249.53,78.34Z" style="fill:#FFC727"></path><path d="M232.91,99.76c0-.18.26-4.49.36-5.32.12-1,7.4-14.26,7.47-14.33l.41.38.47.3c-.44.74-7,12.86-7.24,13.81-.1.77-.35,5.18-.35,5.22Z" style="fill:#FFC727"></path><path d="M265.54,78.57c-.4,1.73-3.58,2.46-7.09,1.64s-6-2.9-5.62-4.63,3.58-2.46,7.09-1.63S266,76.84,265.54,78.57Z" style="fill:#FFC727"></path><path d="M264.18,78c-.31,1.31-2.72,1.87-5.39,1.24s-4.58-2.2-4.28-3.51,2.73-1.87,5.4-1.25S264.49,76.66,264.18,78Z" style="fill:#263238"></path><path d="M237.63,100.68s-3.26-5.74-5.84-4.63-.46,9.2,2.31,10.54a2.94,2.94,0,0,0,4.06-1.21Z" style="fill:#ad6359"></path><path d="M232.45,98.36s-.06,0,0,.07c1.94,1,2.83,3,3.39,5a1.61,1.61,0,0,0-2.37-.67c-.06,0,0,.12,0,.11a1.81,1.81,0,0,1,1.92.81,9.34,9.34,0,0,1,.8,1.69c.07.19.41.12.36-.09v-.05C236.85,102.65,235.19,98.87,232.45,98.36Z" style="fill:#263238"></path><path d="M236.15,106a.85.85,0,1,1-.77-.92A.85.85,0,0,1,236.15,106Z" style="fill:#fff"></path></g></svg>